<mxfile host="app.diagrams.net" modified="2022-03-15T16:36:18.039Z" agent="5.0 (Windows NT 10.0; Win64; x64) AppleWebKit/537.36 (KHTML, like Gecko) Chrome/99.0.4844.51 Safari/537.36" etag="ztY1I4VhUIo-RrKTN57L" version="17.1.2" type="github">
  <diagram id="_-aF9F-tIbugj3eggaSe" name="Page-1">
    <mxGraphModel dx="920" dy="484" grid="0" gridSize="10" guides="1" tooltips="1" connect="1" arrows="1" fold="1" page="1" pageScale="1" pageWidth="850" pageHeight="1100" math="0" shadow="1">
      <root>
        <mxCell id="0" />
        <mxCell id="1" parent="0" />
        <mxCell id="gF1KWQ5gw7_8nlz2hS0s-1" style="edgeStyle=orthogonalEdgeStyle;rounded=0;orthogonalLoop=1;jettySize=auto;html=1;entryX=0.5;entryY=0;entryDx=0;entryDy=0;" edge="1" parent="1" source="gF1KWQ5gw7_8nlz2hS0s-2" target="gF1KWQ5gw7_8nlz2hS0s-4">
          <mxGeometry relative="1" as="geometry" />
        </mxCell>
        <mxCell id="gF1KWQ5gw7_8nlz2hS0s-2" value="Data Collection" style="rounded=1;whiteSpace=wrap;html=1;" vertex="1" parent="1">
          <mxGeometry x="170" y="20" width="170" height="30" as="geometry" />
        </mxCell>
        <mxCell id="gF1KWQ5gw7_8nlz2hS0s-3" style="edgeStyle=orthogonalEdgeStyle;rounded=0;orthogonalLoop=1;jettySize=auto;html=1;entryX=0.5;entryY=0;entryDx=0;entryDy=0;" edge="1" parent="1" source="gF1KWQ5gw7_8nlz2hS0s-4" target="gF1KWQ5gw7_8nlz2hS0s-6">
          <mxGeometry relative="1" as="geometry" />
        </mxCell>
        <mxCell id="gF1KWQ5gw7_8nlz2hS0s-4" value="Data Exploration" style="rounded=1;whiteSpace=wrap;html=1;" vertex="1" parent="1">
          <mxGeometry x="170" y="80" width="170" height="30" as="geometry" />
        </mxCell>
        <mxCell id="gF1KWQ5gw7_8nlz2hS0s-20" style="edgeStyle=orthogonalEdgeStyle;rounded=0;orthogonalLoop=1;jettySize=auto;html=1;entryX=0.5;entryY=0;entryDx=0;entryDy=0;" edge="1" parent="1" source="gF1KWQ5gw7_8nlz2hS0s-6" target="gF1KWQ5gw7_8nlz2hS0s-17">
          <mxGeometry relative="1" as="geometry" />
        </mxCell>
        <mxCell id="gF1KWQ5gw7_8nlz2hS0s-6" value="Data Preprocessing" style="rounded=1;whiteSpace=wrap;html=1;" vertex="1" parent="1">
          <mxGeometry x="170" y="140" width="170" height="30" as="geometry" />
        </mxCell>
        <mxCell id="gF1KWQ5gw7_8nlz2hS0s-7" style="edgeStyle=orthogonalEdgeStyle;rounded=0;orthogonalLoop=1;jettySize=auto;html=1;entryX=0.5;entryY=0;entryDx=0;entryDy=0;" edge="1" parent="1" source="gF1KWQ5gw7_8nlz2hS0s-8" target="gF1KWQ5gw7_8nlz2hS0s-12">
          <mxGeometry relative="1" as="geometry" />
        </mxCell>
        <mxCell id="gF1KWQ5gw7_8nlz2hS0s-8" value="Model Selection for Machine Learning" style="rounded=1;whiteSpace=wrap;html=1;" vertex="1" parent="1">
          <mxGeometry x="170" y="260" width="170" height="40" as="geometry" />
        </mxCell>
        <mxCell id="gF1KWQ5gw7_8nlz2hS0s-9" style="edgeStyle=orthogonalEdgeStyle;rounded=0;orthogonalLoop=1;jettySize=auto;html=1;entryX=0.5;entryY=0;entryDx=0;entryDy=0;" edge="1" parent="1" source="gF1KWQ5gw7_8nlz2hS0s-12" target="gF1KWQ5gw7_8nlz2hS0s-15">
          <mxGeometry relative="1" as="geometry" />
        </mxCell>
        <mxCell id="gF1KWQ5gw7_8nlz2hS0s-12" value="Data Training and Validation" style="rounded=1;whiteSpace=wrap;html=1;" vertex="1" parent="1">
          <mxGeometry x="170" y="330" width="170" height="30" as="geometry" />
        </mxCell>
        <mxCell id="gF1KWQ5gw7_8nlz2hS0s-13" style="edgeStyle=orthogonalEdgeStyle;rounded=0;orthogonalLoop=1;jettySize=auto;html=1;entryX=0.5;entryY=0;entryDx=0;entryDy=0;" edge="1" parent="1" source="gF1KWQ5gw7_8nlz2hS0s-15" target="gF1KWQ5gw7_8nlz2hS0s-16">
          <mxGeometry relative="1" as="geometry" />
        </mxCell>
        <mxCell id="gF1KWQ5gw7_8nlz2hS0s-24" style="edgeStyle=orthogonalEdgeStyle;rounded=0;orthogonalLoop=1;jettySize=auto;html=1;entryX=1;entryY=0.5;entryDx=0;entryDy=0;" edge="1" parent="1" source="gF1KWQ5gw7_8nlz2hS0s-15" target="gF1KWQ5gw7_8nlz2hS0s-6">
          <mxGeometry relative="1" as="geometry">
            <Array as="points">
              <mxPoint x="360" y="405" />
              <mxPoint x="360" y="155" />
            </Array>
          </mxGeometry>
        </mxCell>
        <mxCell id="gF1KWQ5gw7_8nlz2hS0s-15" value="Evaluation of Model" style="rounded=1;whiteSpace=wrap;html=1;" vertex="1" parent="1">
          <mxGeometry x="170" y="390" width="170" height="30" as="geometry" />
        </mxCell>
        <mxCell id="gF1KWQ5gw7_8nlz2hS0s-16" value="Final Model Selection" style="rounded=1;whiteSpace=wrap;html=1;" vertex="1" parent="1">
          <mxGeometry x="170" y="450" width="170" height="30" as="geometry" />
        </mxCell>
        <mxCell id="gF1KWQ5gw7_8nlz2hS0s-21" style="edgeStyle=orthogonalEdgeStyle;rounded=0;orthogonalLoop=1;jettySize=auto;html=1;entryX=0.5;entryY=0;entryDx=0;entryDy=0;" edge="1" parent="1" source="gF1KWQ5gw7_8nlz2hS0s-17" target="gF1KWQ5gw7_8nlz2hS0s-8">
          <mxGeometry relative="1" as="geometry" />
        </mxCell>
        <mxCell id="gF1KWQ5gw7_8nlz2hS0s-17" value="Image Processing" style="rounded=1;whiteSpace=wrap;html=1;" vertex="1" parent="1">
          <mxGeometry x="170" y="200" width="170" height="30" as="geometry" />
        </mxCell>
      </root>
    </mxGraphModel>
  </diagram>
</mxfile>
